<svg width="60" height="60" viewBox="0 0 60 60" fill="none" xmlns="http://www.w3.org/2000/svg">
<path d="M30 0C26.0603 0 22.1593 0.775973 18.5195 2.28361C14.8797 3.79126 11.5726 6.00104 8.7868 8.7868C3.16071 14.4129 0 22.0435 0 30C0 37.9565 3.16071 45.5871 8.7868 51.2132C11.5726 53.999 14.8797 56.2087 18.5195 57.7164C22.1593 59.224 26.0603 60 30 60C37.9565 60 45.5871 56.8393 51.2132 51.2132C56.8393 45.5871 60 37.9565 60 30C60 26.0603 59.224 22.1593 57.7164 18.5195C56.2087 14.8797 53.999 11.5726 51.2132 8.7868C48.4274 6.00104 45.1203 3.79126 41.4805 2.28361C37.8407 0.775973 33.9397 0 30 0ZM15.21 48.84C16.5 46.14 24.36 43.5 30 43.5C35.64 43.5 43.5 46.14 44.79 48.84C40.5882 52.1881 35.3726 54.0077 30 54C24.42 54 19.29 52.08 15.21 48.84ZM49.08 44.49C44.79 39.27 34.38 37.5 30 37.5C25.62 37.5 15.21 39.27 10.92 44.49C7.72855 40.3339 5.999 35.2401 6 30C6 16.77 16.77 6 30 6C43.23 6 54 16.77 54 30C54 35.46 52.14 40.5 49.08 44.49ZM30 12C24.18 12 19.5 16.68 19.5 22.5C19.5 28.32 24.18 33 30 33C35.82 33 40.5 28.32 40.5 22.5C40.5 16.68 35.82 12 30 12ZM30 27C28.8065 27 27.6619 26.5259 26.818 25.682C25.9741 24.8381 25.5 23.6935 25.5 22.5C25.5 21.3065 25.9741 20.1619 26.818 19.318C27.6619 18.4741 28.8065 18 30 18C31.1935 18 32.3381 18.4741 33.182 19.318C34.0259 20.1619 34.5 21.3065 34.5 22.5C34.5 23.6935 34.0259 24.8381 33.182 25.682C32.3381 26.5259 31.1935 27 30 27Z" fill="#2A52BE"/>
</svg>
