<svg width="30" height="35" viewBox="0 0 30 35" fill="none" xmlns="http://www.w3.org/2000/svg">
<path d="M2.92251 6.82656H26.2558V10.2407H2.92251V6.82656ZM5.83918 0H23.3392V3.41413H5.83918V0ZM26.2456 13.6412H2.92105C2.5365 13.6423 2.1559 13.7321 1.80098 13.9054C1.44606 14.0787 1.12378 14.3321 0.852539 14.6512C0.581295 14.9703 0.3664 15.3488 0.220122 15.7651C0.0738448 16.1814 -0.000949647 16.6273 9.10168e-06 17.0775V30.6896C-0.000949647 31.1398 0.0738448 31.5857 0.220122 32.0021C0.3664 32.4184 0.581295 32.7969 0.852539 33.116C1.12378 33.4351 1.44606 33.6885 1.80098 33.8618C2.1559 34.0351 2.5365 34.1248 2.92105 34.126H26.2456C26.6302 34.1248 27.0108 34.0351 27.3657 33.8618C27.7206 33.6885 28.0429 33.4351 28.3141 33.116C28.5854 32.7969 28.8003 32.4184 28.9466 32.0021C29.0928 31.5857 29.1676 31.1398 29.1667 30.6896V17.0775C29.1676 16.6273 29.0928 16.1814 28.9466 15.7651C28.8003 15.3488 28.5854 14.9703 28.3141 14.6512C28.0429 14.3321 27.7206 14.0787 27.3657 13.9054C27.0108 13.7321 26.6302 13.6423 26.2456 13.6412ZM26.25 30.7272H2.91668V17.0707H26.25V30.7272Z" fill="#625A5A"/>
</svg>
