<svg width="35" height="43" viewBox="0 0 35 43" fill="none" xmlns="http://www.w3.org/2000/svg">
<path d="M6.5625 6.4831C6.5625 5.4801 6.88516 4.51819 7.45949 3.80896C8.03382 3.09973 8.81277 2.70129 9.625 2.70129C10.4372 2.70129 11.2162 3.09973 11.7905 3.80896C12.3648 4.51819 12.6875 5.4801 12.6875 6.4831C12.6875 7.4861 12.3648 8.44802 11.7905 9.15724C11.2162 9.86647 10.4372 10.2649 9.625 10.2649C8.81277 10.2649 8.03382 9.86647 7.45949 9.15724C6.88516 8.44802 6.5625 7.4861 6.5625 6.4831ZM9.625 0C8.93556 -1.26864e-08 8.25287 0.16769 7.61591 0.493497C6.97895 0.819303 6.4002 1.29685 5.91269 1.89886C5.42518 2.50087 5.03847 3.21556 4.77463 4.00213C4.51079 4.78869 4.375 5.63173 4.375 6.4831C4.375 7.33447 4.51079 8.17751 4.77463 8.96408C5.03847 9.75064 5.42518 10.4653 5.91269 11.0673C6.4002 11.6694 6.97895 12.1469 7.61591 12.4727C8.25287 12.7985 8.93556 12.9662 9.625 12.9662C11.0174 12.9662 12.3527 12.2832 13.3373 11.0673C14.3219 9.85153 14.875 8.20253 14.875 6.4831C14.875 4.76368 14.3219 3.11467 13.3373 1.89886C12.3527 0.683039 11.0174 2.56214e-08 9.625 0ZM22.3125 6.4831C22.3125 5.4801 22.6352 4.51819 23.2095 3.80896C23.7838 3.09973 24.5628 2.70129 25.375 2.70129C26.1872 2.70129 26.9662 3.09973 27.5405 3.80896C28.1148 4.51819 28.4375 5.4801 28.4375 6.4831C28.4375 7.4861 28.1148 8.44802 27.5405 9.15724C26.9662 9.86647 26.1872 10.2649 25.375 10.2649C24.5628 10.2649 23.7838 9.86647 23.2095 9.15724C22.6352 8.44802 22.3125 7.4861 22.3125 6.4831ZM25.375 0C24.6856 -1.26864e-08 24.0029 0.16769 23.3659 0.493497C22.729 0.819303 22.1502 1.29685 21.6627 1.89886C21.1752 2.50087 20.7885 3.21556 20.5246 4.00213C20.2608 4.78869 20.125 5.63173 20.125 6.4831C20.125 7.33447 20.2608 8.17751 20.5246 8.96408C20.7885 9.75064 21.1752 10.4653 21.6627 11.0673C22.1502 11.6694 22.729 12.1469 23.3659 12.4727C24.0029 12.7985 24.6856 12.9662 25.375 12.9662C26.7674 12.9662 28.1027 12.2832 29.0873 11.0673C30.0719 9.85153 30.625 8.20253 30.625 6.4831C30.625 4.76368 30.0719 3.11467 29.0873 1.89886C28.1027 0.683039 26.7674 2.56214e-08 25.375 0ZM0 18.8507C0 18.3617 0.0779916 17.8775 0.229522 17.4258C0.381053 16.974 0.603155 16.5636 0.883146 16.2178C1.16314 15.8721 1.49554 15.5978 1.86136 15.4107C2.22719 15.2235 2.61928 15.1272 3.01525 15.1272H11.4362C11.0437 15.9646 10.7686 16.8779 10.6225 17.8285H3.01525C2.90655 17.8285 2.79891 17.855 2.69848 17.9063C2.59806 17.9577 2.50681 18.033 2.42994 18.1279C2.35308 18.2228 2.29211 18.3355 2.25051 18.4595C2.20891 18.5835 2.1875 18.7165 2.1875 18.8507V19.3142C2.1875 19.606 2.19012 21.4029 3.07912 23.1015C3.86313 24.6012 5.46175 26.2566 8.92762 26.4532C8.02484 26.9588 7.27148 27.7981 6.77163 28.8552C3.95238 28.1723 2.23913 26.4748 1.24163 24.5677C1.04308e-07 22.1938 0 19.741 0 19.3164V18.8518V18.8507ZM26.0724 26.4532C26.9752 26.9588 27.7285 27.7981 28.2284 28.8552C31.0476 28.1723 32.7609 26.4748 33.7584 24.5677C35 22.1938 35 19.741 35 19.3164V18.8518C35.0001 18.3627 34.9222 17.8784 34.7707 17.4265C34.6193 16.9747 34.3972 16.5641 34.1172 16.2182C33.8372 15.8723 33.5047 15.598 33.1388 15.4108C32.773 15.2236 32.3808 15.1272 31.9848 15.1272H23.5638C23.9487 15.9517 24.2288 16.8615 24.3775 17.8285H31.9848C32.4415 17.8285 32.8125 18.2867 32.8125 18.8507V19.3142C32.8125 19.606 32.8099 21.4029 31.9209 23.1015C31.1369 24.6012 29.5382 26.2566 26.0724 26.4532ZM17.5 15.6675C16.6878 15.6675 15.9088 16.0659 15.3345 16.7752C14.7602 17.4844 14.4375 18.4463 14.4375 19.4493C14.4375 20.4523 14.7602 21.4142 15.3345 22.1234C15.9088 22.8327 16.6878 23.2311 17.5 23.2311C18.3122 23.2311 19.0912 22.8327 19.6655 22.1234C20.2398 21.4142 20.5625 20.4523 20.5625 19.4493C20.5625 18.4463 20.2398 17.4844 19.6655 16.7752C19.0912 16.0659 18.3122 15.6675 17.5 15.6675ZM12.25 19.4493C12.25 17.7299 12.8031 16.0809 13.7877 14.8651C14.7723 13.6492 16.1076 12.9662 17.5 12.9662C18.8924 12.9662 20.2277 13.6492 21.2123 14.8651C22.1969 16.0809 22.75 17.7299 22.75 19.4493C22.75 21.1687 22.1969 22.8177 21.2123 24.0336C20.2277 25.2494 18.8924 25.9324 17.5 25.9324C16.1076 25.9324 14.7723 25.2494 13.7877 24.0336C12.8031 22.8177 12.25 21.1687 12.25 19.4493ZM7.875 31.8169C7.875 30.8294 8.19268 29.8823 8.75815 29.184C9.32362 28.4857 10.0906 28.0934 10.8902 28.0934H24.1098C24.9094 28.0934 25.6764 28.4857 26.2419 29.184C26.8073 29.8823 27.125 30.8294 27.125 31.8169V32.2826C27.125 32.7083 27.125 35.16 25.8834 37.5339C24.5858 40.0148 22.0789 42.1402 17.5 42.1402C12.9211 42.1402 10.4142 40.0148 9.11662 37.5339C7.875 35.16 7.875 32.7072 7.875 32.2826V31.8169ZM10.8902 30.7947C10.6707 30.7947 10.4602 30.9024 10.3049 31.0941C10.1497 31.2858 10.0625 31.5458 10.0625 31.8169V32.2804C10.0625 32.5722 10.0651 34.3691 10.9541 36.0677C11.7889 37.6647 13.5476 39.4389 17.5 39.4389C21.4524 39.4389 23.2111 37.6647 24.0459 36.0677C24.9349 34.3691 24.9375 32.5722 24.9375 32.2804V31.8169C24.9375 31.5458 24.8503 31.2858 24.6951 31.0941C24.5398 30.9024 24.3293 30.7947 24.1098 30.7947H10.8902Z" fill="#625A5A"/>
</svg>
