<svg width="40" height="42" viewBox="0 0 40 42" fill="none" xmlns="http://www.w3.org/2000/svg">
<path d="M39.8653 31.3442C39.7499 31.0908 39.5635 30.8733 39.3269 30.7158C36.0639 28.5608 35.3851 24.8847 35.3851 22.1788C35.3851 18.913 37.9751 16.0686 39.5192 14.6621C39.6711 14.5239 39.792 14.3574 39.8747 14.1728C39.9574 13.9881 40 13.7892 40 13.5882C40 13.3872 39.9574 13.1883 39.8747 13.0037C39.792 12.8191 39.6711 12.6526 39.5192 12.5144C37.081 10.3021 33.0431 8.87154 29.232 8.87154C26.4943 8.87356 23.8184 9.65355 21.5407 11.1134C18.8836 9.4008 15.6886 8.63164 12.5053 8.93826C9.32204 9.24488 6.34939 10.6081 4.09865 12.7935C2.75312 14.1139 1.69738 15.6807 0.994144 17.4009C0.290904 19.1211 -0.045492 20.9596 0.00493605 22.8072C0.0810611 25.9257 0.802789 28.9984 2.12798 31.8458C3.45317 34.6933 5.35526 37.2584 7.72319 39.3915C9.14955 40.6868 11.0391 41.406 13.0014 41.4005H29.8608C30.9099 41.4024 31.9482 41.1972 32.9113 40.7976C33.8745 40.3979 34.742 39.8124 35.4601 39.0773C36.7903 37.7012 37.9409 36.1744 38.8866 34.5306C40.2364 32.1593 40.0633 31.7897 39.8653 31.3442ZM33.2065 37.0627C32.7771 37.501 32.2585 37.8497 31.6829 38.0872C31.1074 38.3247 30.4871 38.4459 29.8608 38.4433H13.0014C11.8261 38.447 10.6943 38.0162 9.84023 37.2401C7.76755 35.3749 6.10235 33.1313 4.94188 30.6406C3.78142 28.1498 3.14897 25.4617 3.08147 22.7333C3.03941 21.2837 3.30117 19.8407 3.85117 18.4903C4.40118 17.1399 5.22819 15.9097 6.28299 14.8728C7.26848 13.905 8.44583 13.137 9.74543 12.6142C11.045 12.0913 12.4405 11.8242 13.8493 11.8287H13.9993C16.3957 11.853 18.7136 12.6525 20.5793 14.0984C20.8521 14.3083 21.1912 14.4227 21.5407 14.4227C21.8902 14.4227 22.2293 14.3083 22.5021 14.0984C24.4078 12.6215 26.7841 11.8201 29.232 11.8287C31.6765 11.856 34.068 12.5169 36.1542 13.7416C33.6545 16.4253 32.3086 19.3732 32.3086 22.1788C32.3086 26.5721 33.7776 30.0764 36.5734 32.3996C35.693 34.1031 34.5587 35.674 33.2065 37.0627ZM21.5849 5.54471C22.0115 3.95654 22.9755 2.54984 24.3251 1.54604C25.6747 0.542241 27.3333 -0.00164314 29.0397 3.72903e-06H29.232C29.64 3.72903e-06 30.0313 0.155783 30.3197 0.433072C30.6082 0.710362 30.7703 1.08645 30.7703 1.47859C30.7703 1.87074 30.6082 2.24682 30.3197 2.52411C30.0313 2.8014 29.64 2.95718 29.232 2.95718H29.0397C28.0166 2.9571 27.0224 3.28384 26.2135 3.88605C25.4046 4.48826 24.8269 5.33178 24.5711 6.28401C24.4691 6.6639 24.2143 6.98929 23.8627 7.18859C23.5111 7.38789 23.0915 7.44478 22.6963 7.34674C22.3011 7.24871 21.9626 7.00377 21.7552 6.66583C21.5479 6.32788 21.4887 5.9246 21.5907 5.54471H21.5849Z" fill="white"/>
</svg>
