<svg width="40" height="40" viewBox="0 0 40 40" fill="none" xmlns="http://www.w3.org/2000/svg">
<path d="M37.4432 0.641797C38.5999 1.29408 39.452 2.38224 39.8121 3.66699C40.1721 4.95173 40.0107 6.32786 39.3632 7.49275L22.9202 37.057C22.5038 37.806 21.9262 38.4516 21.2298 38.9467C20.5333 39.4417 19.7357 39.7736 18.8954 39.918C18.055 40.0624 17.1932 40.0157 16.3731 39.7812C15.5531 39.5467 14.7955 39.1305 14.1559 38.563L1.6944 27.5105C0.699454 26.6278 0.0935396 25.3833 0.00995149 24.0507C-0.0736366 22.7182 0.371949 21.4068 1.24868 20.405C2.12542 19.4032 3.36148 18.7932 4.68496 18.709C6.00844 18.6248 7.31092 19.0735 8.30586 19.9562L16.7859 27.4789L30.6374 2.57497C30.9582 1.99808 31.3887 1.49046 31.9043 1.08109C32.42 0.671727 33.0106 0.368635 33.6426 0.189121C34.2746 0.009608 34.9355 -0.0428101 35.5876 0.0348604C36.2397 0.112531 36.8702 0.318769 37.4432 0.641797Z" fill="white"/>
</svg>
