<svg width="34" height="39" viewBox="0 0 34 39" fill="none" xmlns="http://www.w3.org/2000/svg">
<path d="M13.5217 19.2599V17.4765C13.5217 16.294 13.8882 15.16 14.5405 14.3238C15.1928 13.4877 16.0775 13.0179 17 13.0179C17.9225 13.0179 18.8072 13.4877 19.4595 14.3238C20.1118 15.16 20.4783 16.294 20.4783 17.4765V17.5461C20.4784 18.081 20.3847 18.6091 20.2041 19.0913C20.0235 19.5735 19.7605 19.9975 19.4348 20.3318L18.0435 21.755C17.7177 22.0893 17.4548 22.5133 17.2742 22.9955C17.0935 23.4777 16.9998 24.0058 17 24.5407V27.2854M17 29.9605V33.5274M7.95652 7.66763V37.986M26.0435 37.986V7.66763H23.2233M23.2233 7.66763H33V8.11349L32.9235 8.66636C31.6337 18.0343 31.6337 27.6194 32.9235 36.9873L33 37.5401V37.986H1V37.5401L1.07652 36.9873C2.36633 27.6194 2.36633 18.0343 1.07652 8.66636L1 8.11349V7.66763H10.7767M23.2233 7.66763C23.0532 5.70461 22.323 3.89093 21.1749 2.57366C20.0268 1.2564 18.5401 0.528076 16.9993 0.528076C15.4585 0.528076 13.9718 1.2564 12.8237 2.57366C11.6756 3.89093 10.9468 5.70461 10.7767 7.66763M23.2233 7.66763H10.7767" stroke="#2A52BE"/>
</svg>
