<svg width="46" height="47" viewBox="0 0 46 47" fill="none" xmlns="http://www.w3.org/2000/svg">
<path d="M32.8759 29.4481H30.7982L30.0618 28.7252C32.7283 25.577 34.1939 21.5578 34.191 17.4011C34.191 13.9595 33.1883 10.5952 31.3099 7.73358C29.4314 4.87198 26.7614 2.64164 23.6376 1.32459C20.5139 0.00753964 17.0765 -0.337061 13.7603 0.334365C10.4441 1.00579 7.398 2.66309 5.00716 5.09668C2.61631 7.53027 0.988125 10.6308 0.328493 14.0063C-0.33114 17.3818 0.00740721 20.8806 1.30132 24.0602C2.59524 27.2399 4.78641 29.9576 7.59775 31.8696C10.4091 33.7817 13.7143 34.8022 17.0955 34.8022C21.3299 34.8022 25.2224 33.2228 28.2207 30.5992L28.9308 31.3488V33.4637L42.0812 46.8224L46 42.8335L32.8759 29.4481ZM17.0955 29.4481C10.5466 29.4481 5.26016 24.0671 5.26016 17.4011C5.26016 10.7352 10.5466 5.3542 17.0955 5.3542C23.6444 5.3542 28.9308 10.7352 28.9308 17.4011C28.9308 24.0671 23.6444 29.4481 17.0955 29.4481Z" fill="black" fill-opacity="0.5"/>
</svg>
