<svg width="40" height="30" viewBox="0 0 40 30" fill="none" xmlns="http://www.w3.org/2000/svg">
<path d="M22.5 2C22.5 1.46957 22.7634 0.960859 23.2322 0.585786C23.7011 0.210714 24.337 0 25 0H32.5C33.163 0 33.7989 0.210714 34.2678 0.585786C34.7366 0.960859 35 1.46957 35 2V6C35 6.53043 34.7366 7.03914 34.2678 7.41421C33.7989 7.78929 33.163 8 32.5 8H25C24.337 8 23.7011 7.78929 23.2322 7.41421C22.7634 7.03914 22.5 6.53043 22.5 6V2ZM32.5 2H25V6H32.5V2ZM28.75 10C29.0815 10 29.3995 10.1054 29.6339 10.2929C29.8683 10.4804 30 10.7348 30 11V22.586L32.865 20.292C33.0997 20.1042 33.4181 19.9987 33.75 19.9987C34.0819 19.9987 34.4003 20.1042 34.635 20.292C34.8697 20.4798 35.0016 20.7344 35.0016 21C35.0016 21.2656 34.8697 21.5202 34.635 21.708L29.635 25.708C29.5189 25.8011 29.3809 25.875 29.2291 25.9254C29.0772 25.9758 28.9144 26.0018 28.75 26.0018C28.5856 26.0018 28.4228 25.9758 28.2709 25.9254C28.1191 25.875 27.9811 25.8011 27.865 25.708L22.865 21.708C22.6303 21.5202 22.4984 21.2656 22.4984 21C22.4984 20.7344 22.6303 20.4798 22.865 20.292C23.0997 20.1042 23.4181 19.9987 23.75 19.9987C24.0819 19.9987 24.4003 20.1042 24.635 20.292L27.5 22.586V11C27.5 10.7348 27.6317 10.4804 27.8661 10.2929C28.1005 10.1054 28.4185 10 28.75 10ZM5 20C5 19.4696 5.26339 18.9609 5.73223 18.5858C6.20107 18.2107 6.83696 18 7.5 18H15C15.663 18 16.2989 18.2107 16.7678 18.5858C17.2366 18.9609 17.5 19.4696 17.5 20V24C17.5 24.5304 17.2366 25.0391 16.7678 25.4142C16.2989 25.7893 15.663 26 15 26H7.5C6.83696 26 6.20107 25.7893 5.73223 25.4142C5.26339 25.0391 5 24.5304 5 24V20ZM15 20H7.5V24H15V20ZM1.25 22C1.58152 22 1.89946 22.1054 2.13388 22.2929C2.3683 22.4804 2.5 22.7348 2.5 23V26C2.5 26.5304 2.76339 27.0391 3.23223 27.4142C3.70107 27.7893 4.33696 28 5 28H35C35.663 28 36.2989 27.7893 36.7678 27.4142C37.2366 27.0391 37.5 26.5304 37.5 26V23C37.5 22.7348 37.6317 22.4804 37.8661 22.2929C38.1005 22.1054 38.4185 22 38.75 22C39.0815 22 39.3995 22.1054 39.6339 22.2929C39.8683 22.4804 40 22.7348 40 23V26C40 27.0609 39.4732 28.0783 38.5355 28.8284C37.5979 29.5786 36.3261 30 35 30H5C3.67392 30 2.40215 29.5786 1.46447 28.8284C0.526784 28.0783 0 27.0609 0 26V23C0 22.7348 0.131696 22.4804 0.366117 22.2929C0.600537 22.1054 0.918479 22 1.25 22Z" fill="black" fill-opacity="0.5"/>
</svg>
