<svg width="28" height="36" viewBox="0 0 28 36" fill="none" xmlns="http://www.w3.org/2000/svg">
<path d="M3.11111 35.1168C2.25556 35.1168 1.52289 34.7344 0.913113 33.9697C0.303336 33.2049 -0.0010344 32.2866 2.64101e-06 31.2149V3.90187C2.64101e-06 2.82886 0.304892 1.90997 0.914669 1.1452C1.52445 0.380435 2.25659 -0.00129731 3.11111 3.31228e-06H24.8889C25.7444 3.31228e-06 26.4771 0.382386 27.0869 1.14715C27.6967 1.91192 28.001 2.83016 28 3.90187V31.2149C28 32.2879 27.6951 33.2068 27.0853 33.9716C26.4756 34.7364 25.7434 35.1181 24.8889 35.1168H3.11111ZM3.11111 31.2149H12.4444V3.90187H3.11111V31.2149ZM15.5556 31.2149H24.8889V17.5584H15.5556V31.2149ZM15.5556 13.6565H24.8889V3.90187H15.5556V13.6565Z" fill="#2A52BE"/>
</svg>
