<svg width="36" height="28" viewBox="0 0 36 28" fill="none" xmlns="http://www.w3.org/2000/svg">
<path d="M3.66659 27.3333C2.74992 27.3333 1.96492 27.0066 1.31159 26.3533C0.658255 25.7 0.332144 24.9155 0.333255 24V3.99996C0.333255 3.0833 0.659922 2.2983 1.31325 1.64496C1.96659 0.991629 2.75103 0.665518 3.66659 0.666629H12.2916C12.736 0.666629 13.1599 0.749962 13.5633 0.916629C13.9666 1.0833 14.3205 1.31941 14.6249 1.62496L16.9999 3.99996H30.3333C31.2499 3.99996 32.0349 4.32663 32.6883 4.97996C33.3416 5.6333 33.6677 6.41774 33.6666 7.3333H15.6249L12.2916 3.99996H3.66659V24L6.95825 13.0416C7.18048 12.3194 7.59048 11.7427 8.18826 11.3116C8.78603 10.8805 9.44548 10.6655 10.1666 10.6666H31.6666C32.8055 10.6666 33.7016 11.1183 34.3549 12.0216C35.0083 12.925 35.1816 13.9039 34.8749 14.9583L31.8749 24.9583C31.6527 25.6805 31.2427 26.2572 30.6449 26.6883C30.0471 27.1194 29.3877 27.3344 28.6666 27.3333H3.66659ZM7.16659 24H28.6666L31.6666 14H10.1666L7.16659 24Z" fill="#625A5A"/>
</svg>
